<svg height="100%" width="100%" id="bg-svg" viewBox="0 0 1440 700"
    xmlns="http://www.w3.org/2000/svg" class="transition duration-300 ease-in-out delay-150">
    <defs>
        <linearGradient id="gradient">
            <stop offset="5%" stop-color="#002bdcff"></stop>
            <stop offset="95%" stop-color="#32ded4ff"></stop>
        </linearGradient>
    </defs>
    <path d="M 0,700 C 0,700 0,466 0,466 C 54.879906949694686,451.22765603108724 109.75981389938937,436.4553120621745 161,421 C 212.24018610061063,405.5446879378255 259.8406513521373,389.4064077823892 306,402 C 352.1593486478627,414.5935922176108 396.87758069206166,455.9190568082688 438,471 C 479.12241930793834,486.0809431917312 516.6490258796161,474.9173649845357 558,491 C 599.3509741203839,507.0826350154643 644.5263157894736,550.4114832535885 704,540 C 763.4736842105264,529.5885167464115 837.2457109624892,465.43670200111023 883,437 C 928.7542890375108,408.56329799888977 946.4908403605699,415.84170874197036 983,444 C 1019.5091596394301,472.15829125802964 1074.7909275952313,521.1964630310081 1128,522 C 1181.2090724047687,522.8035369689919 1232.3454492585054,475.3724391339977 1284,458 C 1335.6545507414946,440.6275608660023 1387.8272753707474,453.31378043300117 1440,466 C 1440,466 1440,700 1440,700 Z" stroke="none" stroke-width="0" fill="url(#gradient)" class="transition-all duration-300 ease-in-out delay-150"></path>
</svg>