<svg height="200" width="1080" id="bg-svg" viewBox="0 0 1440 400"
    xmlns="http://www.w3.org/2000/svg" class="transition duration-300 ease-in-out delay-150">
    <path d="M 0,400 C 0,400 0,100 0,100 C 106.71428571428572,118.57142857142857 213.42857142857144,137.14285714285714 353,134 C 492.57142857142856,130.85714285714286 665,106.00000000000001 771,101 C 877,95.99999999999999 916.5714285714287,110.85714285714286 1017,114 C 1117.4285714285713,117.14285714285714 1278.7142857142858,108.57142857142857 1440,100 C 1440,100 1440,400 1440,400 Z" stroke="none" stroke-width="0" fill="#0693e366" class="transition-all duration-300 ease-in-out delay-150"></path>
    <path d="M 0,400 C 0,400 0,200 0,200 C 132.07142857142858,181.32142857142856 264.14285714285717,162.64285714285714 374,174 C 483.85714285714283,185.35714285714286 571.4999999999999,226.74999999999997 700,236 C 828.5000000000001,245.25000000000003 997.8571428571429,222.35714285714286 1128,211 C 1258.142857142857,199.64285714285714 1349.0714285714284,199.82142857142856 1440,200 C 1440,200 1440,400 1440,400 Z" stroke="none" stroke-width="0" fill="#0693e388" class="transition-all duration-300 ease-in-out delay-150"></path>
    <path d="M 0,400 C 0,400 0,300 0,300 C 141.46428571428572,305.7857142857143 282.92857142857144,311.57142857142856 412,301 C 541.0714285714286,290.42857142857144 657.75,263.5 776,271 C 894.25,278.5 1014.0714285714287,320.42857142857144 1125,331 C 1235.9285714285713,341.57142857142856 1337.9642857142858,320.7857142857143 1440,300 C 1440,300 1440,400 1440,400 Z" stroke="none" stroke-width="0" fill="#0693e3ff" class="transition-all duration-300 ease-in-out delay-150"></path>
</svg>