<svg height="100%" width="100%" id="bg-svg" viewBox="0 0 1440 700"
    xmlns="http://www.w3.org/2000/svg" class="transition duration-300 ease-in-out delay-150">
    <defs>
        <linearGradient id="gradient">
            <stop offset="5%" stop-color="#002bdc88"></stop>
            <stop offset="95%" stop-color="#32ded488"></stop>
        </linearGradient>
    </defs>
    <path d="M 0,700 C 0,700 0,233 0,233 C 41.79994184355918,183.13909963255702 83.59988368711836,133.27819926511407 133,152 C 182.40011631288164,170.72180073488593 239.40040709508577,258.0263025721008 283,252 C 326.59959290491423,245.97369742789922 356.79848793253854,146.61659044648283 410,157 C 463.20151206746146,167.38340955351717 539.40564117476,287.50733564196787 598,319 C 656.59435882524,350.49266435803213 697.5789473684212,293.35406698564594 734,260 C 770.4210526315788,226.64593301435406 802.2785693515555,217.07639641544847 851,226 C 899.7214306484445,234.92360358455153 965.3067752253562,262.3403473525602 1011,281 C 1056.6932247746438,299.6596526474398 1082.4943297470195,309.5622141743107 1127,284 C 1171.5056702529805,258.4377858256893 1234.715905786566,197.41079595019693 1290,183 C 1345.284094213434,168.58920404980307 1392.642047106717,200.79460202490154 1440,233 C 1440,233 1440,700 1440,700 Z" stroke="none" stroke-width="0" fill="url(#gradient)" class="transition-all duration-300 ease-in-out delay-150"></path>
</svg>